<svg width="141" height="32" viewBox="0 0 141 32" fill="none" xmlns="http://www.w3.org/2000/svg">
<path d="M0 6.00006C0 2.68635 2.68629 6.10352e-05 6 6.10352e-05H26C29.3137 6.10352e-05 32 2.68635 32 6.00006V26.0001C32 29.3138 29.3137 32.0001 26 32.0001H6C2.68629 32.0001 0 29.3138 0 26.0001V6.00006Z" fill="#E6017A"/>
<path d="M54.8 24.0001H49.04V22.0321H50.624V17.8081C50.624 16.7841 50.44 16.0641 50.072 15.6481C49.704 15.2161 49.192 15.0001 48.536 15.0001C47.72 15.0001 47.072 15.2641 46.592 15.7921C46.128 16.3201 45.888 16.9681 45.872 17.7361V22.0321H47.48V24.0001H41.696V22.0321H43.304V15.2161H41.624V13.2241H45.872V14.9761C46.624 13.6641 47.816 13.0081 49.448 13.0081C50.472 13.0081 51.352 13.3201 52.088 13.9441C52.824 14.5681 53.192 15.5441 53.192 16.8721V22.0321H54.8V24.0001ZM57.3185 10.9921V8.16006H59.9345V10.9921H57.3185ZM61.6145 24.0001H55.8545V22.0321H57.4625V15.2161H55.7585V13.2241H60.0065V22.0321H61.6145V24.0001ZM68.4303 7.24806C68.9263 7.24806 69.4303 7.31206 69.9423 7.44006C70.4543 7.55206 70.9423 7.78406 71.4063 8.13606L71.8623 10.8961L69.8463 11.1361L69.3423 9.38406C69.0223 9.27206 68.6943 9.21606 68.3583 9.21606C67.3663 9.21606 66.8703 9.84006 66.8703 11.0881V13.2241H69.5823V15.1201H66.8703V22.0321H68.9103V24.0001H62.7183V22.0321H64.3263V15.1201H62.9103V13.2241H64.3263V11.4481C64.3263 10.2801 64.6943 9.28806 65.4303 8.47206C66.1663 7.65606 67.1663 7.24806 68.4303 7.24806ZM79.4699 20.8321C79.1659 23.1041 77.9019 24.2401 75.6779 24.2401C74.5259 24.2401 73.6059 23.9361 72.9179 23.3281C72.2459 22.7201 71.9099 21.8721 71.9099 20.7841V15.1201H70.3259V13.2241H71.9099V9.88806H74.4779V13.2241H78.4859V15.1201H74.4779V20.3761C74.4779 21.5121 74.9739 22.0801 75.9659 22.0801C76.2379 22.0801 76.5419 21.9841 76.8779 21.7921C77.2139 21.5841 77.4459 21.0641 77.5739 20.2321L79.4699 20.8321ZM91.6334 15.1921H90.5054L86.9054 24.0001L85.7054 27.0961H87.2894V29.1121H81.5294V27.0961H83.3534L84.4094 24.0961L80.5934 15.1921H79.4174V13.2241H84.7214V15.1921H83.3534L85.8494 21.0241H85.9934L88.0094 15.1921H86.7854V13.2241H91.6334V15.1921ZM101.612 20.7841C101.612 21.9041 101.148 22.7601 100.22 23.3521C99.3078 23.9441 98.1398 24.2401 96.7158 24.2401C95.9478 24.2401 95.1718 24.1521 94.3878 23.9761C93.6198 23.8001 92.9238 23.5361 92.2998 23.1841L92.6838 20.4001L94.6998 20.5921L94.6758 21.9841C94.9798 22.1121 95.2998 22.2001 95.6358 22.2481C95.9878 22.2961 96.2998 22.3201 96.5718 22.3201C97.2278 22.3201 97.7958 22.2081 98.2758 21.9841C98.7718 21.7441 99.0198 21.3921 99.0198 20.9281C99.0198 20.4801 98.7958 20.1601 98.3478 19.9681C97.9158 19.7761 97.3718 19.6321 96.7158 19.5361C96.0598 19.4241 95.4038 19.2801 94.7478 19.1041C94.0918 18.9121 93.5398 18.6081 93.0918 18.1921C92.6598 17.7601 92.4438 17.1201 92.4438 16.2721C92.4438 15.0241 92.9158 14.1681 93.8598 13.7041C94.8198 13.2401 95.8278 13.0081 96.8838 13.0081C98.2758 13.0081 99.5878 13.3361 100.82 13.9921L101.084 16.6561L99.0678 16.8961L98.8518 15.2881C98.2278 15.0481 97.5958 14.9281 96.9558 14.9281C96.4598 14.9281 96.0358 15.0321 95.6838 15.2401C95.3478 15.4321 95.1798 15.7441 95.1798 16.1761C95.1798 16.6241 95.3958 16.9361 95.8278 17.1121C96.2598 17.2881 96.7958 17.4321 97.4358 17.5441C98.0758 17.6401 98.7158 17.7841 99.3558 17.9761C99.9958 18.1521 100.532 18.4561 100.964 18.8881C101.396 19.3041 101.612 19.9361 101.612 20.7841ZM115.8 24.0001H111.552V22.2001C110.848 23.5441 109.664 24.2161 108 24.2161C106.976 24.2161 106.088 23.9121 105.336 23.3041C104.6 22.6801 104.232 21.6961 104.232 20.3521V15.1921H102.624V13.2241H106.8V19.4161C106.8 20.4401 106.984 21.1681 107.352 21.6001C107.72 22.0161 108.24 22.2241 108.912 22.2241C109.712 22.2241 110.344 21.9441 110.808 21.3841C111.288 20.8241 111.536 20.1601 111.552 19.3921V15.1921H109.632V13.2241H114.12V22.0321H115.8V24.0001ZM128.572 18.3601C128.572 19.8801 128.172 21.2401 127.372 22.4401C126.572 23.6401 125.34 24.2401 123.676 24.2401C121.98 24.2401 120.788 23.6001 120.1 22.3201C120.068 22.5121 120.028 22.7921 119.98 23.1601C119.932 23.5281 119.892 23.8081 119.86 24.0001H117.316C117.412 23.4721 117.5 22.9361 117.58 22.3921C117.66 21.8321 117.7 21.2881 117.7 20.7601V9.45606H116.092V7.48806H120.244V15.3601C120.564 14.7201 121.012 14.1681 121.588 13.7041C122.18 13.2401 122.972 13.0081 123.964 13.0081C125.324 13.0081 126.428 13.4801 127.276 14.4241C128.14 15.3521 128.572 16.6641 128.572 18.3601ZM125.908 18.5761C125.908 17.4401 125.652 16.5761 125.14 15.9841C124.628 15.3761 123.972 15.0721 123.172 15.0721C122.26 15.0721 121.548 15.4081 121.036 16.0801C120.524 16.7521 120.26 17.4801 120.244 18.2641V19.0321C120.244 19.9121 120.5 20.6641 121.012 21.2881C121.54 21.8961 122.228 22.2001 123.076 22.2001C123.972 22.2001 124.668 21.8721 125.164 21.2161C125.66 20.5601 125.908 19.6801 125.908 18.5761ZM139.323 20.7841C139.323 21.9041 138.859 22.7601 137.931 23.3521C137.019 23.9441 135.851 24.2401 134.427 24.2401C133.659 24.2401 132.883 24.1521 132.099 23.9761C131.331 23.8001 130.635 23.5361 130.011 23.1841L130.395 20.4001L132.411 20.5921L132.387 21.9841C132.691 22.1121 133.011 22.2001 133.347 22.2481C133.699 22.2961 134.011 22.3201 134.283 22.3201C134.939 22.3201 135.507 22.2081 135.987 21.9841C136.483 21.7441 136.731 21.3921 136.731 20.9281C136.731 20.4801 136.507 20.1601 136.059 19.9681C135.627 19.7761 135.083 19.6321 134.427 19.5361C133.771 19.4241 133.115 19.2801 132.459 19.1041C131.803 18.9121 131.251 18.6081 130.803 18.1921C130.371 17.7601 130.155 17.1201 130.155 16.2721C130.155 15.0241 130.627 14.1681 131.571 13.7041C132.531 13.2401 133.539 13.0081 134.595 13.0081C135.987 13.0081 137.299 13.3361 138.531 13.9921L138.795 16.6561L136.779 16.8961L136.563 15.2881C135.939 15.0481 135.307 14.9281 134.667 14.9281C134.171 14.9281 133.747 15.0321 133.395 15.2401C133.059 15.4321 132.891 15.7441 132.891 16.1761C132.891 16.6241 133.107 16.9361 133.539 17.1121C133.971 17.2881 134.507 17.4321 135.147 17.5441C135.787 17.6401 136.427 17.7841 137.067 17.9761C137.707 18.1521 138.243 18.4561 138.675 18.8881C139.107 19.3041 139.323 19.9361 139.323 20.7841Z" fill="black"/>
<path d="M10.5157 12.1423C10.2484 10.6261 11.7226 9.38901 13.1694 9.91558L22.2839 13.233C23.7307 13.7596 24.0649 15.6548 22.8855 16.6445L15.4552 22.8792C14.2758 23.8688 12.4674 23.2106 12.2 21.6944L10.5157 12.1423Z" fill="white"/>
</svg>
