<?xml version="1.0" encoding="UTF-8" standalone="no"?>
<!DOCTYPE svg PUBLIC "-//W3C//DTD SVG 1.1//EN" "http://www.w3.org/Graphics/SVG/1.1/DTD/svg11.dtd">
<svg xmlns="http://www.w3.org/2000/svg" version="1.1" viewBox="0 0 188 224" width="188.0pt" height="224.0pt" xmlns:xlink="http://www.w3.org/1999/xlink">
<defs>
<path d="M 0.00 0.00 L 188.00 0.00 L 188.00 224.00 L 0.00 224.00 L 0.00 0.00 Z M 171.70 155.00 C 171.73 125.65 171.57 96.30 171.67 66.95 C 171.77 59.04 169.06 51.23 163.43 45.59 C 158.10 40.09 150.71 36.69 143.00 36.86 C 110.10 36.89 76.90 36.84 43.96 36.87 C 29.29 37.27 16.79 50.39 16.86 65.01 C 16.85 97.34 16.90 129.67 16.83 162.01 C 16.19 174.59 24.92 186.38 36.76 190.22 C 40.43 191.41 44.14 191.64 47.97 191.65 C 79.00 191.63 110.03 191.53 141.07 191.62 C 146.37 191.65 151.57 190.82 156.25 188.21 C 163.70 184.41 169.22 177.05 170.93 168.88 C 171.98 164.19 171.67 159.77 171.70 155.00 Z" id="p0" />
<path d="M 43.96 36.87 C 76.90 36.84 110.10 36.89 143.00 36.86 C 150.71 36.69 158.10 40.09 163.43 45.59 C 169.06 51.23 171.77 59.04 171.67 66.95 C 171.57 96.30 171.73 125.65 171.70 155.00 C 171.67 159.77 171.98 164.19 170.93 168.88 C 169.22 177.05 163.70 184.41 156.25 188.21 C 151.57 190.82 146.37 191.65 141.07 191.62 C 110.03 191.53 79.00 191.63 47.97 191.65 C 44.14 191.64 40.43 191.41 36.76 190.22 C 24.92 186.38 16.19 174.59 16.83 162.01 C 16.90 129.67 16.85 97.34 16.86 65.01 C 16.79 50.39 29.29 37.27 43.96 36.87 Z M 86.17 86.82 C 83.48 85.86 80.70 84.56 77.87 84.16 C 73.41 83.72 69.15 86.79 67.92 91.04 C 67.20 93.47 67.80 96.24 68.19 98.69 C 70.84 113.10 73.21 127.59 75.90 141.98 C 76.78 147.00 81.62 150.41 86.62 149.71 C 89.27 149.34 91.16 147.85 93.14 146.19 C 103.27 137.63 113.43 129.13 123.59 120.62 C 126.35 118.24 129.59 116.34 130.66 112.64 C 132.11 107.63 129.29 102.33 124.34 100.71 C 111.65 96.07 98.87 91.44 86.17 86.82 Z" id="p1" />
<path d="M 77.87 84.16 C 80.70 84.56 83.48 85.86 86.17 86.82 C 98.87 91.44 111.65 96.07 124.34 100.71 C 129.29 102.33 132.11 107.63 130.66 112.64 C 129.59 116.34 126.35 118.24 123.59 120.62 C 113.43 129.13 103.27 137.63 93.14 146.19 C 91.16 147.85 89.27 149.34 86.62 149.71 C 81.62 150.41 76.78 147.00 75.90 141.98 C 73.21 127.59 70.84 113.10 68.19 98.69 C 67.80 96.24 67.20 93.47 67.92 91.04 C 69.15 86.79 73.41 83.72 77.87 84.16 Z" id="p2" />
</defs>
<g stroke-width="10pt">
<use stroke="#ffffff" xlink:href="#p0" />
<use stroke="#d32e79" xlink:href="#p1" />
<use stroke="#ffffff" xlink:href="#p2" />
</g>
<g>
<use fill="#ffffff" xlink:href="#p0" />
<use fill="#d32e79" xlink:href="#p1" />
<use fill="#ffffff" xlink:href="#p2" />
</g>
</svg>