<svg width="24" height="24" viewBox="0 0 24 24" fill="none" xmlns="http://www.w3.org/2000/svg">
<path d="M18.816 8.06394C18.288 8.30394 17.76 8.44794 17.136 8.54394C17.712 8.15994 18.192 7.63194 18.432 6.95994C17.856 7.29594 17.232 7.53594 16.608 7.67994C16.08 7.10394 15.312 6.76794 14.496 6.76794C12.912 6.76794 11.568 8.06394 11.568 9.69594C11.568 9.93594 11.616 10.1279 11.664 10.3679C9.26399 10.2719 7.10399 9.07194 5.66399 7.34394C5.42399 7.67994 5.27999 8.15994 5.27999 8.68794C5.27999 9.69594 5.80799 10.6079 6.57599 11.0879C6.09599 11.0879 5.66399 10.9439 5.27999 10.7039V10.7519C5.27999 12.1439 6.28799 13.3439 7.63199 13.5839C7.39199 13.6319 7.15199 13.6799 6.86399 13.6799C6.67199 13.6799 6.47999 13.6799 6.33599 13.6319C6.71999 14.7839 7.77599 15.6479 9.07199 15.6479C8.06399 16.4159 6.81599 16.8959 5.47199 16.8959C5.23199 16.8959 4.99199 16.8959 4.79999 16.8479C5.95199 17.7599 7.48799 18.2399 9.11999 18.2399C14.448 18.2399 17.376 13.8239 17.376 9.98394V9.59994C17.952 9.16794 18.432 8.68794 18.816 8.06394Z" fill="white"/>
</svg>
