<svg width="183" height="41" viewBox="0 0 183 41" fill="none" xmlns="http://www.w3.org/2000/svg">
<g clip-path="url(#clip0)">
<path d="M13.4257 20.5721L20.2013 9.9248L26.9769 20.5721L20.2013 24.4439L13.4257 20.5721Z" fill="white"/>
<path d="M13.4257 22.3906L20.2013 26.2624L26.9769 22.3906L20.2013 31.586L13.4257 22.3906Z" fill="white"/>
<path d="M23.2825 5.60612C22.2302 6.09716 21.2057 6.64547 20.2134 7.24859C19.2148 6.63872 18.1816 6.08776 17.1187 5.59851C18.1109 4.92797 19.1361 4.30777 20.1905 3.74023C21.2263 4.29616 22.2569 4.91813 23.2825 5.60612Z" fill="#5F9A34"/>
<path d="M37.7499 3.20657C34.031 -0.512448 27.2528 -0.0681936 20.1906 3.73969C21.2263 4.29564 22.2569 4.9176 23.2825 5.60558C26.0165 4.34137 28.6212 3.66353 30.8272 3.66353C32.7997 3.66353 34.4548 4.20428 35.6023 5.35172C38.0368 7.7862 37.7474 12.4979 35.351 17.674C36.0364 18.6971 36.6584 19.7277 37.2169 20.766C41.0248 13.7037 41.469 6.92565 37.7499 3.20657Z" fill="#FFC750"/>
<path d="M23.2825 5.60547C22.2302 6.09652 21.2057 6.64483 20.2133 7.24795C25.6981 10.6408 30.3161 15.2659 33.7008 20.7558C34.306 19.7589 34.8568 18.7302 35.351 17.674C33.7477 15.3006 31.9191 13.0877 29.8904 11.0659C27.8705 9.03536 25.6574 7.20655 23.2825 5.60547Z" fill="#FFC750"/>
<path d="M37.2169 20.7658C36.666 21.7888 36.044 22.8195 35.3535 23.845C34.8595 22.7857 34.3079 21.7545 33.7009 20.7556C34.306 19.7587 34.8568 18.73 35.351 17.6738C36.0365 18.6968 36.6584 19.7274 37.2169 20.7658Z" fill="#FF512F"/>
<path d="M35.3535 23.8443C34.8595 22.785 34.3077 21.7537 33.7008 20.7549C32.0235 23.4981 30.0231 26.0303 27.7427 28.2971C25.4804 30.5787 22.9526 32.5808 20.2133 34.2602C21.2046 34.8652 22.2292 35.4136 23.2825 35.9027C25.6574 34.3016 27.8705 32.4727 29.8904 30.4422C31.9201 28.4242 33.7496 26.2147 35.3535 23.8443Z" fill="#FF6895"/>
<path d="M39.3925 25.858C38.8291 24.0959 38.1008 22.3908 37.2169 20.7656C36.6659 21.7887 36.044 22.8193 35.3536 23.845C37.7474 29.0186 38.0368 33.7252 35.6023 36.1571C33.1679 38.5917 28.4588 38.2997 23.2825 35.9033C23.0693 36.048 22.856 36.1876 22.6428 36.3247C21.8304 36.8476 21.0105 37.3301 20.1906 37.7692C23.9502 39.7975 27.6286 40.8713 30.8094 40.8713C33.6019 40.8713 36.0111 40.0437 37.7499 38.3048C40.4713 35.5834 41.0526 31.1637 39.3925 25.858Z" fill="#FF6895"/>
<path d="M23.2825 35.9033C23.0693 36.0479 22.856 36.1876 22.6427 36.3247C21.8304 36.8475 21.0104 37.33 20.1905 37.7692C19.17 37.2207 18.1461 36.6014 17.1187 35.9108C18.1816 35.4216 19.2148 34.8706 20.2134 34.2607C21.2046 34.8658 22.2293 35.4141 23.2825 35.9033Z" fill="#552990"/>
<path d="M14.1893 37.0486C10.0158 38.3559 6.68011 38.0385 4.79903 36.1575C2.91789 34.2765 2.60057 30.9407 3.90799 26.7673C4.22371 25.7685 4.60274 24.7908 5.04273 23.8402C4.35477 22.8173 3.73537 21.7891 3.18447 20.7686C2.30137 22.3929 1.57377 24.0972 1.01142 25.8584C-0.651344 31.1641 -0.0674856 35.5838 2.65137 38.3052C4.3573 40.0086 6.72833 40.8742 9.5665 40.8742C11.4459 40.8458 13.3101 40.5326 15.0956 39.9452C16.8586 39.382 18.5645 38.6535 20.1906 37.7696C19.17 37.2212 18.1462 36.6019 17.1188 35.9112C16.1677 36.3528 15.1891 36.7326 14.1893 37.0486Z" fill="#5666F6"/>
<path d="M17.1187 35.9113C18.1816 35.4221 19.2148 34.8711 20.2134 34.2612C17.4649 32.5838 14.9285 30.5817 12.6585 28.298C10.3749 26.0281 8.37277 23.4917 6.69535 20.7432C6.08563 21.7431 5.53386 22.7771 5.04272 23.8403C6.64924 26.2124 8.48132 28.4237 10.5134 30.4432C12.5319 32.4766 14.7443 34.3079 17.1187 35.9113Z" fill="#5666F6"/>
<path d="M6.69534 20.7431C6.08564 21.7429 5.53385 22.777 5.04272 23.84C4.35477 22.8171 3.73534 21.7889 3.18445 20.7684C3.74039 19.7326 4.3649 18.6969 5.05288 17.6738C5.54195 18.7272 6.09032 19.7519 6.69534 20.7431Z" fill="#204FA0"/>
<path d="M4.79848 5.35178C6.67956 3.47065 10.0153 3.15332 14.1888 4.46329C15.1882 4.77943 16.1666 5.15844 17.1182 5.59803C18.1104 4.92751 19.1356 4.30731 20.1899 3.73977C18.5644 2.85474 16.8584 2.12627 15.0951 1.56417C9.79187 -0.0960187 5.37218 0.485269 2.65081 3.20664C0.911871 4.9456 0.0842896 7.35472 0.0842896 10.1472C0.0842896 13.328 1.15812 17.009 3.18391 20.7686C3.73985 19.7329 4.36436 18.6972 5.05234 17.6742C2.65588 12.4979 2.36395 7.78626 4.79848 5.35178Z" fill="#5FC5A6"/>
<path d="M17.1189 5.59766C12.3709 8.82566 8.27691 12.9231 5.05292 17.6738C5.542 18.727 6.09037 19.7517 6.69539 20.7429C10.089 15.2532 14.7179 10.632 20.2134 7.24774C19.215 6.63788 18.1817 6.0869 17.1189 5.59766Z" fill="#5FC5A6"/>
<path fill-rule="evenodd" clip-rule="evenodd" d="M154.904 30.3821C157.405 29.3221 159.031 26.8426 159.03 24.0946C159.033 21.3467 157.405 18.867 154.904 17.8071C152.402 16.7471 149.518 17.3145 147.588 19.2458V10.7275H145.585V30.647H147.588V28.9434C149.518 30.8746 152.402 31.442 154.904 30.3821ZM180.039 11.148H182.141V30.9094H180.039V11.148ZM177.519 30.6497V28.968H176.712C176.003 28.968 175.391 28.483 175.391 27.2863V17.7135H173.39V19.3954C172.139 18.1483 170.446 17.4502 168.681 17.4548C165.617 17.4424 162.937 19.5216 162.18 22.4988C161.422 25.476 162.782 28.5882 165.477 30.0488C168.174 31.5093 171.516 30.9439 173.584 28.677C173.939 30.0196 175.166 30.9426 176.552 30.9084C176.891 30.9115 177.226 30.822 177.519 30.6497ZM168.681 19.4601C171.282 19.4601 173.39 21.5739 173.39 24.1817C173.387 26.7881 171.28 28.9003 168.681 28.9034C166.08 28.9034 163.972 26.7894 163.972 24.1818C163.972 21.5741 166.08 19.4601 168.681 19.4601ZM157.027 24.0946C157.027 21.4528 154.914 19.3113 152.308 19.3113C149.702 19.3113 147.588 21.4528 147.588 24.0946C147.588 26.7363 149.702 28.878 152.308 28.878C153.561 28.882 154.764 28.3794 155.649 27.4814C156.534 26.5835 157.031 25.3645 157.027 24.0946ZM135.08 17.4548C131.367 17.4548 128.357 20.4668 128.357 24.1821C128.356 25.9667 129.064 27.6787 130.325 28.9406C131.586 30.2025 133.297 30.9107 135.08 30.9094C138.793 30.9094 141.803 27.8974 141.803 24.1821C141.803 20.4668 138.793 17.4548 135.08 17.4548ZM139.799 24.1821C139.799 21.5742 137.686 19.4602 135.08 19.4602C132.474 19.4602 130.361 21.5743 130.361 24.1822C130.361 26.7901 132.474 28.9041 135.08 28.9041C137.684 28.9011 139.795 26.7888 139.799 24.1821ZM118.272 20.7498V20.1642H108.435V22.1163H116.107C115.449 25.9245 112.206 28.6973 108.422 28.6882C104.638 28.679 101.408 25.8904 100.768 22.0791C100.127 18.2679 102.261 14.5379 105.825 13.2387C109.39 11.9396 113.352 13.4478 115.216 16.8132L116.967 15.8046C114.5 11.4021 109.217 9.55635 104.629 11.4935C100.04 13.4307 97.573 18.5483 98.866 23.4464C100.159 28.3447 104.81 31.5002 109.729 30.8165C114.649 30.1329 118.306 25.823 118.272 20.7498ZM122.474 11.148H124.575V30.9094H122.474V11.148ZM95.1622 30.9094V11.148H90.928V19.0855H83.0415V11.148H78.775V30.9094H83.0415V22.939H90.928V30.9094H95.1622ZM77.0943 15.0015H72.2699V30.9094H68.0844V15.0015H63.228V11.148H77.0943V15.0015ZM54.5042 19.1185V14.9685H61.9675V11.148H50.2023V30.9094H61.9675V27.0888H54.5042V22.939H60.892V19.1185H54.5042Z" fill="white"/>
</g>
<defs>
<clipPath id="clip0">
<rect width="182.982" height="40.3636" fill="white" transform="translate(0 0.636719)"/>
</clipPath>
</defs>
</svg>
